<svg width="54" height="54" viewBox="0 0 54 54" fill="none" xmlns="http://www.w3.org/2000/svg">
<g clip-path="url(#clip0_3877_53055)">
<path d="M27 2.12797e-05C12.087 2.12797e-05 0 12.0893 0 27C0 41.913 12.087 54 27 54C41.9107 54 54 41.913 54 27C54.0011 24.4552 53.6428 21.9229 52.9358 19.4783C52.8032 19.1564 52.5514 18.8981 52.233 18.7574C51.9146 18.6167 51.5541 18.6044 51.2269 18.7232C50.8996 18.842 50.6309 19.0825 50.4768 19.3947C50.3227 19.7069 50.2952 20.0665 50.4 20.3985H50.3955C50.9918 22.5203 51.3 24.7365 51.3 27C51.3088 30.1925 50.6843 33.355 49.4627 36.3045C48.2411 39.254 46.4467 41.9319 44.1832 44.1833C41.9319 46.4468 39.254 48.2413 36.3045 49.4629C33.355 50.6845 30.1925 51.3089 27 51.3C23.8075 51.3088 20.6451 50.6843 17.6956 49.4627C14.7461 48.2411 12.0681 46.4467 9.81675 44.1833C7.55311 41.932 5.75854 39.2541 4.53694 36.3046C3.31534 33.3551 2.69097 30.1925 2.7 27C2.69122 23.8076 3.3157 20.6451 4.53729 17.6956C5.75888 14.7461 7.55331 12.0681 9.81675 9.81677C12.068 7.55313 14.7459 5.75856 17.6954 4.53696C20.6449 3.31536 23.8075 2.691 27 2.70002C32.796 2.70002 38.2793 4.71602 42.6555 8.41502C42.3789 9.11705 42.3514 9.89268 42.5775 10.6126C42.8036 11.3324 43.2696 11.953 43.898 12.3708C44.5263 12.7886 45.2788 12.9784 46.0301 12.9084C46.7814 12.8385 47.486 12.5131 48.0264 11.9865C48.5668 11.4599 48.9104 10.7639 48.9997 10.0147C49.089 9.26544 48.9188 8.50822 48.5174 7.86932C48.1159 7.23041 47.5076 6.74845 46.7938 6.50382C46.08 6.25918 45.3039 6.26667 44.595 6.52502C39.7037 2.308 33.4582 -0.00809893 27 2.12797e-05V2.12797e-05ZM23.76 13.23L14.31 37.7595H20.2275L21.7733 33.6015H30.7035L29.0858 29.007H23.2065L27.0315 18.4523L33.8355 37.7573H39.7553L30.3075 13.23H23.76Z" fill="#B42F53"/>
</g>
<defs>
<clipPath id="clip0_3877_53055">
<rect width="54" height="54" fill="white"/>
</clipPath>
</defs>
</svg>
