<svg width="54" height="54" viewBox="0 0 54 54" fill="none" xmlns="http://www.w3.org/2000/svg">
<g clip-path="url(#clip0_3877_53060)">
<path d="M31.6145 6.18975L42.7183 12.6023C44.5543 10.6695 47.6075 10.593 49.5403 12.429C49.8733 12.744 50.1568 13.1063 50.3885 13.5023C51.7138 15.8153 50.9105 18.765 48.5975 20.0903C48.206 20.3153 47.7853 20.484 47.342 20.592V33.4148C49.9205 34.029 51.5135 36.6165 50.897 39.195C50.789 39.654 50.6113 40.095 50.375 40.5022C49.043 42.804 46.0978 43.5938 43.7893 42.2618C43.3483 42.0075 42.9455 41.679 42.6058 41.2965L31.5695 47.6685C32.4065 50.1975 31.034 52.9223 28.5073 53.757C28.019 53.9168 27.5128 54 26.9998 54C24.3425 54.0023 22.187 51.8513 22.1848 49.194C22.1848 48.7328 22.25 48.2715 22.3828 47.8237L11.2768 41.418C9.44079 43.3395 6.39204 43.4138 4.46829 41.5755C2.54679 39.7395 2.47479 36.6908 4.31079 34.767C4.94754 34.0988 5.76429 33.6285 6.65979 33.4103L6.66204 20.5875C4.07454 19.9665 2.48154 17.3633 3.10479 14.7735C3.21054 14.328 3.38154 13.8983 3.60879 13.5C4.94079 11.196 7.88829 10.4085 10.1945 11.7405C10.5928 11.9678 10.9573 12.2535 11.2745 12.5888L22.385 6.17625C21.629 3.627 23.0848 0.951752 25.6273 0.198002C26.0705 0.0652518 26.5363 1.7654e-06 26.9998 1.7654e-06C29.657 -0.00224823 31.8125 2.1465 31.8148 4.8015C31.817 5.27175 31.7473 5.742 31.6145 6.18975ZM30.4558 8.163C30.413 8.21025 30.3725 8.25075 30.3253 8.2935L44.8625 33.471C44.921 33.4508 44.9885 33.435 45.047 33.4193V20.5785C42.4708 19.9418 40.9025 17.334 41.5415 14.7555C41.555 14.7015 41.5685 14.6453 41.5843 14.5935L30.4558 8.163V8.163ZM23.672 8.29575L23.537 8.16075L12.4085 14.5778C13.1443 17.1315 11.6728 19.7933 9.12129 20.529C9.06279 20.547 9.00654 20.5605 8.95029 20.5763V33.4193L9.13929 33.471L23.6765 8.2935L23.672 8.29575V8.29575ZM28.343 9.4365C27.4655 9.6885 26.5363 9.6885 25.661 9.4365L11.126 34.6118C11.7875 35.2485 12.2555 36.063 12.476 36.954H41.5258C41.744 36.0585 42.2165 35.2418 42.8825 34.605L28.343 9.4365ZM30.5615 45.9472L41.6158 39.5618C41.582 39.456 41.555 39.3502 41.5303 39.2422H12.4693L12.422 39.429L23.5348 45.846C24.4078 44.937 25.6363 44.3767 26.9998 44.3767C28.4105 44.3767 29.6773 44.982 30.5615 45.9472Z" fill="black"/>
</g>
<defs>
<clipPath id="clip0_3877_53060">
<rect width="54" height="54" fill="white"/>
</clipPath>
</defs>
</svg>
