<svg xmlns="http://www.w3.org/2000/svg" version="1.1" width="800px" height="800px"><svg version="1.1" id="SvgjsSvg1016" xmlns="http://www.w3.org/2000/svg" xmlns:xlink="http://www.w3.org/1999/xlink" viewBox="0 0 460 460" xml:space="preserve" width="800px" height="800px" fill="#000000">

<g id="SvgjsG1015" stroke-width="0"></g>

<g id="SvgjsG1014" stroke-linecap="round" stroke-linejoin="round"></g>

<g id="SvgjsG1013"> <g id="SvgjsG1012"> <polygon id="SvgjsPolygon1011" style="fill:#FFD488;" points="160,105 130,105 130,65 160,55 "></polygon> <polygon id="SvgjsPolygon1010" style="fill:#FFB739;" points="330,105 300,105 300,55 330,65 "></polygon> <polygon id="SvgjsPolygon1009" style="fill:#641E31FF;" points="230,35 210,50 230,65 330,65 330,35 "></polygon> <rect id="SvgjsRect1008" x="130" y="35" style="fill:#B42F53FF;" width="100" height="30"></rect> <polygon id="SvgjsPolygon1007" style="fill:#B42F53FF;" points="210,235 230,425 460,425 460,165 "></polygon> <polygon id="SvgjsPolygon1006" style="fill:#641E31FF;" points="460,95 460,165 270,245 210,255 230,95 "></polygon> <polygon id="SvgjsPolygon1005" style="fill:#BB6B81FF;" points="0,165 0,425 230,425 230,235 "></polygon> <polygon id="SvgjsPolygon1004" style="fill:#B42F53FF;" points="230,95 230,255 190,245 0,165 0,95 "></polygon> <polygon id="SvgjsPolygon1003" style="fill:#FB992D;" points="270,275 270,305 230,305 220,275 243.5,265 "></polygon> <polygon id="SvgjsPolygon1002" style="fill:#FFB739;" points="270,245 270,275 220,275 230,245 "></polygon> <polygon id="SvgjsPolygon1001" style="fill:#FFB739;" points="230,275 230,305 190,305 190,275 210,265 "></polygon> <rect id="SvgjsRect1000" x="190" y="245" style="fill:#FFD488;" width="40" height="30"></rect> </g> </g>

</svg><style>@media (prefers-color-scheme: light) { :root { filter: none; } }
</style></svg>