<svg width="54" height="35" viewBox="0 0 54 35" fill="none" xmlns="http://www.w3.org/2000/svg">
<path d="M40.5929 25.9629H47.2964V12.5499L39.7439 6.25607L35.0036 10.2063L40.5929 14.864V25.9629ZM47.3141 28.7634H37.5506H23.9312L18.342 24.1057L20.7121 22.1306L25.3285 25.9777H34.8267L25.47 18.1657L27.8578 16.1758L37.2145 23.9731V16.0579L32.6158 12.2256L34.9682 10.2652L23.3475 0.537109H11.886H0L6.68588 6.10868V6.12342H6.72126H20.5529L25.4523 10.2063L18.2889 16.1758L13.3895 12.093V8.92394H6.68588V14.4071L18.2889 24.0763L13.5663 28.0117L21.1189 34.3055H32.5804H54L47.3141 28.7634Z" fill="#B42F53"/>
</svg>
