<svg width="70" height="70" viewBox="0 0 58 54" fill="none" xmlns="http://www.w3.org/2000/svg">
<path d="M35.7926 33.4529L34.68 35.4548C34.3449 36.0579 33.7244 36.4295 33.0529 36.4295H24.5302C23.8587 36.4295 23.2382 36.0579 22.9031 35.4548L21.7905 33.4529H35.7926ZM38.9071 27.8486L36.9455 31.3783H20.6375L18.676 27.8486H38.9071ZM37.0175 22.3683L38.9103 25.7741H18.6729L20.5656 22.3683H37.0175ZM33.0529 17.1875C33.7244 17.1875 34.3449 17.5592 34.68 18.1622L35.8646 20.2937H21.7185L22.9031 18.1622C23.2382 17.5592 23.8587 17.1875 24.5302 17.1875H33.0529Z" fill="#00435B"/>
<path d="M12.1263 16.2592C11.1822 11.5152 10.9796 7.87654 11.5898 5.23441C11.9528 3.66301 12.6163 2.38109 13.6253 1.45621C14.6905 0.479775 16.0373 0.000637203 17.5506 0.000637203C20.047 0.000637203 22.6714 1.18034 25.476 3.42147C26.6199 4.33559 27.8072 5.43741 29.0402 6.72756C29.1383 6.59663 29.2493 6.47313 29.3729 6.359C32.8588 3.13981 35.7937 1.13968 38.3039 0.368497C39.7965 -0.0900505 41.1979 -0.133737 42.474 0.3113C43.821 0.781065 44.8943 1.75214 45.6516 3.1123C46.9013 5.35706 47.2309 8.30669 46.765 11.9487C46.5751 13.4333 46.2504 15.0503 45.7916 16.8025C45.9647 16.8241 46.1382 16.8639 46.31 16.9229C50.7329 18.4417 53.8648 20.0751 55.7609 21.9418C56.889 23.0524 57.6257 24.2888 57.892 25.6575C58.1731 27.1021 57.8991 28.5511 57.1427 29.9102C55.8953 32.1517 53.6017 33.9196 50.3341 35.3199C49.0221 35.8821 47.5376 36.3913 45.879 36.8493C45.9547 37.0264 46.0134 37.2144 46.0527 37.4117C46.9968 42.1557 47.1994 45.7943 46.5891 48.4365C46.2262 50.0079 45.5626 51.2898 44.5536 52.2147C43.4884 53.1911 42.1416 53.6702 40.6283 53.6702C38.1319 53.6702 35.5076 52.4905 32.703 50.2494C31.5468 49.3256 30.3465 48.21 29.0993 46.9021C28.971 47.1101 28.8135 47.3034 28.6271 47.4755C25.1412 50.6947 22.2063 52.6948 19.6961 53.466C18.2035 53.9245 16.8021 53.9682 15.526 53.5232C14.179 53.0534 13.1057 52.0823 12.3484 50.7222C11.0987 48.4774 10.7691 45.5278 11.235 41.8857C11.4318 40.3476 11.7733 38.6671 12.2586 36.8415C12.0689 36.8215 11.8784 36.78 11.69 36.7153C7.26712 35.1964 4.13522 33.563 2.2391 31.6964C1.11095 30.5858 0.374261 29.3494 0.107952 27.9807C-0.173138 26.5361 0.100946 25.0871 0.857317 23.7279C2.10472 21.4864 4.39834 19.7186 7.66589 18.3183C9.01702 17.7393 10.551 17.2165 12.2697 16.7481C12.2085 16.5927 12.1601 16.4294 12.1263 16.2592Z" fill="#002B3B"/>
<path d="M42.967 37.8781C43.4068 37.7973 43.8282 38.0895 43.9264 38.5377L43.9318 38.5643L43.9787 38.8165C45.4989 47.0989 44.428 51.24 40.7661 51.24C37.1833 51.24 32.6224 47.7064 27.0834 40.639C26.961 40.4829 26.895 40.2874 26.8966 40.0862C26.9007 39.6177 27.2635 39.2394 27.7125 39.2292L27.7385 39.229L28.0302 39.2312C30.361 39.2443 32.6269 39.1601 34.8279 38.9785C37.4261 38.7643 40.1391 38.3974 42.967 37.8781ZM17.8183 31.6174L17.8324 31.642L17.9787 31.9067C19.1516 34.0198 20.3736 36.0253 21.6447 37.9234C23.1416 40.1587 24.825 42.4215 26.6948 44.712C26.9841 45.0663 26.951 45.5923 26.6247 45.9051L26.6035 45.9248L26.4153 46.0926C20.2288 51.5857 16.2078 52.6823 14.3524 49.3824C12.5361 46.1523 13.1946 40.279 16.3278 31.7626C16.3967 31.5755 16.5261 31.4189 16.6939 31.3196C17.0862 31.0876 17.5836 31.2216 17.8183 31.6174ZM46.1064 19.3961L46.1317 19.4047L46.3646 19.488C54.0008 22.2407 56.902 25.2659 55.0682 28.5634C53.2746 31.7885 48.0606 34.1366 39.4261 35.6078C39.2335 35.6406 39.0359 35.6025 38.8677 35.5C38.4704 35.2579 38.3377 34.7279 38.5712 34.3162C39.8079 32.1362 40.9218 29.9671 41.9127 27.8088C43.0366 25.3611 44.0913 22.7339 45.0768 19.927C45.2262 19.5015 45.6652 19.2703 46.0809 19.3885L46.1064 19.3961ZM19.1325 18.0102C19.5299 18.2522 19.6626 18.7822 19.429 19.194C18.1923 21.374 17.0785 23.5431 16.0875 25.7013C14.9637 28.149 13.909 30.7763 12.9234 33.5831C12.771 34.0174 12.3171 34.2492 11.8939 34.114L11.8685 34.1055L11.6357 34.0222C3.99946 31.2694 1.09825 28.2443 2.93208 24.9468C4.72562 21.7217 9.93966 19.3735 18.5742 17.9023C18.7668 17.8695 18.9643 17.9077 19.1325 18.0102ZM43.6479 4.45206C45.4641 7.68218 44.8056 13.5554 41.6725 22.0718C41.6036 22.259 41.4742 22.4156 41.3064 22.5148C40.9141 22.7469 40.4167 22.6129 40.1819 22.217L40.1679 22.1925L40.0215 21.9278C38.8487 19.8147 37.6267 17.8091 36.3556 15.9111C34.8586 13.6758 33.1753 11.4129 31.3055 9.12246C31.0162 8.76813 31.0492 8.24218 31.3756 7.92939L31.3968 7.90971L31.5849 7.74191C37.7714 2.24875 41.7924 1.15213 43.6479 4.45206ZM17.5471 2.48633C21.13 2.48633 25.6909 6.02 31.2298 13.0873C31.3522 13.2435 31.4182 13.439 31.4166 13.6401C31.4126 14.1087 31.0497 14.487 30.6007 14.4971L30.5747 14.4973L30.283 14.4952C27.9522 14.4821 25.6863 14.5663 23.4853 14.7478C20.8872 14.9621 18.1741 15.3289 15.3462 15.8483C14.9064 15.9291 14.485 15.6369 14.3868 15.1886L14.3814 15.1621L14.3345 14.9098C12.8143 6.6275 13.8852 2.48633 17.5471 2.48633Z" fill="#FF4154"/>
<path d="M25.2156 17.2969H32.3696C33.4158 17.2969 34.3821 17.8768 34.9029 18.8171L38.4949 25.3032C39.0117 26.2362 39.0117 27.3834 38.4949 28.3164L34.9029 34.8025C34.3821 35.7428 33.4158 36.3227 32.3696 36.3227H25.2156C24.1694 36.3227 23.2031 35.7428 22.6823 34.8025L19.0902 28.3164C18.5735 27.3834 18.5735 26.2362 19.0902 25.3032L22.6823 18.8171C23.2031 17.8768 24.1694 17.2969 25.2156 17.2969ZM31.2792 19.2545C32.326 19.2545 33.2927 19.835 33.8133 20.7761L36.3181 25.3046C36.8338 26.2369 36.8338 27.3827 36.3181 28.315L33.8133 32.8435C33.2927 33.7846 32.326 34.3651 31.2792 34.3651H26.306C25.2592 34.3651 24.2924 33.7846 23.7719 32.8435L21.267 28.315C20.7513 27.3827 20.7513 26.2369 21.267 25.3046L23.7719 20.7761C24.2924 19.835 25.2592 19.2545 26.306 19.2545H31.2792ZM30.104 21.3957H27.4812C26.4354 21.3957 25.4695 21.975 24.9486 22.9146L23.6249 25.3019C23.1072 26.2356 23.1072 27.384 23.6249 28.3177L24.9486 30.705C25.4695 31.6446 26.4354 32.2239 27.4812 32.2239H30.104C31.1497 32.2239 32.1157 31.6446 32.6366 30.705L33.9602 28.3177C34.4779 27.384 34.4779 26.2356 33.9602 25.3019L32.6366 22.9146C32.1157 21.975 31.1497 21.3957 30.104 21.3957ZM28.9724 23.4451C30.0174 23.4451 30.9827 24.0235 31.5039 24.962L31.6916 25.2999C32.2107 26.2346 32.2107 27.385 31.6916 28.3197L31.5039 28.6576C30.9827 29.596 30.0174 30.1745 28.9724 30.1745H28.6127C27.5678 30.1745 26.6025 29.596 26.0813 28.6576L25.8936 28.3197C25.3744 27.385 25.3744 26.2346 25.8936 25.2999L26.0813 24.962C26.6025 24.0235 27.5678 23.4451 28.6127 23.4451H28.9724ZM28.7931 25.4639C28.328 25.4639 27.8991 25.7204 27.6669 26.1369C27.4347 26.5532 27.4347 27.0664 27.6669 27.4827C27.8991 27.8992 28.328 28.1557 28.7921 28.1557C29.2572 28.1557 29.6861 27.8992 29.9183 27.4827C30.1505 27.0664 30.1505 26.5532 29.9183 26.1369C29.6861 25.7204 29.2572 25.4639 28.7931 25.4639ZM18.2559 26.8098H20.5942Z" fill="#FFD94C"/>
</svg>
