<svg width="70" height="70" viewBox="0 0 54 34" fill="none" xmlns="http://www.w3.org/2000/svg">
<path d="M27.423 20.7394C27.423 21.8513 26.5959 22.7693 25.5236 22.9135C24.2524 25.8769 21.6631 28.7681 18.1156 30.8162C15.1382 32.5352 11.983 33.374 9.15284 33.374C5.55348 33.374 2.47956 32.0178 0.962932 29.391C-1.50014 25.1248 0.899817 19.1722 6.58812 15.1499C6.58832 16.0687 6.66021 16.9112 6.82117 17.6588C6.36217 18.0458 5.94502 18.3772 5.53795 18.804C4.49047 19.9021 3.65306 21.0398 3.08012 22.2547C2.01144 24.5205 1.93921 26.6624 2.87662 28.2861C3.93266 30.1152 6.22027 31.1643 9.15284 31.1643C11.6939 31.1643 14.4845 30.361 17.0107 28.9025C18.4817 28.0533 19.7897 27.0334 20.8984 25.871C21.9459 24.7728 22.7675 23.6 23.3405 22.3852C23.3904 22.2793 23.4375 22.1739 23.4829 22.0687C23.2015 21.6997 23.0341 21.2392 23.0341 20.7394C23.0341 19.5275 24.0166 18.545 25.2285 18.545C26.4405 18.545 27.423 19.5275 27.423 20.7394ZM17.6297 0.441406C22.5292 0.441406 26.5898 5.61857 27.3225 12.3848C26.5583 11.9255 25.7582 11.5428 24.9203 11.2404C24.8205 10.7174 24.6967 10.2038 24.5491 9.70089C24.1218 8.24468 23.517 6.94675 22.7513 5.84306C21.3234 3.78471 19.5045 2.65112 17.6297 2.65112C15.755 2.65112 13.936 3.78471 12.5081 5.84306C11.7425 6.94675 11.1376 8.24468 10.7103 9.70089C10.2581 11.2422 10.0288 12.885 10.0288 14.5835C10.0288 16.282 10.2581 17.9247 10.7103 19.466C11.1376 20.9222 11.7425 22.2201 12.5081 23.3239C12.5875 23.4382 12.6681 23.5495 12.7498 23.658C12.8805 23.6337 13.0152 23.6205 13.153 23.6205C14.365 23.6205 15.3474 24.603 15.3474 25.8148C15.3474 27.0268 14.365 28.0093 13.153 28.0093C11.9411 28.0093 10.9586 27.0268 10.9586 25.8148C10.9586 25.5667 11.0004 25.3284 11.0763 25.106C9.07707 22.517 7.81905 18.7624 7.81905 14.5835C7.81905 6.77301 12.2114 0.441406 17.6297 0.441406ZM26.0856 31.1638C28.7765 31.1638 30.9245 30.2805 32.076 28.7217C32.7455 29.0755 33.4897 29.2908 34.2753 29.3999C32.75 31.9976 29.6643 33.3736 26.0856 33.3736C23.8726 33.3736 21.4615 32.8609 19.0916 31.8156C20.0138 31.3063 20.8308 30.8141 21.436 30.3565C23.0024 30.8846 24.5873 31.1638 26.0856 31.1638ZM29.7162 18.7684C28.6075 17.606 27.2995 16.5861 25.8286 15.7369C23.3024 14.2783 20.512 13.4751 17.9714 13.4751H17.9711C17.4159 13.4752 16.8837 13.5128 16.3788 13.5862C16.3659 13.588 16.3535 13.5904 16.3407 13.5924C16.1113 14.5591 15.243 15.2785 14.2061 15.2785C12.9941 15.2785 12.0117 14.296 12.0117 13.0841C12.0117 11.8722 12.9941 10.8897 14.2061 10.8897C14.7751 10.8897 15.2935 11.1063 15.6835 11.4616C15.6864 11.461 15.6893 11.4603 15.6924 11.4598C16.4194 11.3306 17.1825 11.2655 17.9707 11.2654C20.8011 11.2653 23.9556 12.1039 26.9334 13.8232C31.8326 16.6518 34.9079 21.088 35.2017 25.1022C34.3119 25.002 33.559 24.7068 32.8668 24.325C32.7276 23.6547 32.4913 22.9605 32.1583 22.2543C31.5853 21.0393 30.7637 19.8665 29.7162 18.7684Z" fill="#B42F53"/>
<path d="M52.1038 15.4348C53.0759 16.8987 51.0964 18.0438 50.2099 16.5718C49.6695 15.6494 48.8406 14.7866 47.754 14.0328C46.6503 13.2672 45.3523 12.6623 43.8962 12.2351C42.3548 11.7828 40.7121 11.5535 39.0137 11.5535C37.3152 11.5535 35.6724 11.7828 34.1311 12.2351C33.8659 12.3129 33.6065 12.3973 33.352 12.4869C33.3205 13.6713 32.3511 14.6219 31.159 14.6219C29.9471 14.6219 28.9646 13.6395 28.9646 12.4276C28.9646 11.2156 29.9471 10.2331 31.159 10.2331C31.5623 10.2331 31.9398 10.3424 32.2645 10.5322C34.2705 9.77492 36.5692 9.34375 39.0137 9.34375C44.9263 9.34375 49.9913 11.861 52.1038 15.4348ZM53.9487 20.7389C53.9487 21.8393 53.1388 22.7502 52.0828 22.9088C49.9581 26.4641 44.907 28.9651 39.0137 28.9651C34.4114 28.9651 30.3227 27.4401 27.7402 25.0788C26.491 23.823 27.9947 22.364 29.1598 23.3833C29.4935 23.6945 29.8651 23.993 30.2733 24.276C31.3769 25.0417 32.6749 25.6465 34.1311 26.0738C35.6724 26.5261 37.3151 26.7554 39.0137 26.7554C40.7121 26.7554 42.3549 26.5261 43.8962 26.0738C45.3524 25.6465 46.6504 25.0417 47.754 24.276C48.7116 23.6117 49.4683 22.8627 50.0045 22.0629C49.7256 21.6949 49.5598 21.2364 49.5598 20.7389C49.5598 19.5269 50.5423 18.5445 51.7543 18.5445C52.9662 18.5445 53.9487 19.5269 53.9487 20.7389Z" fill="#912F48"/>
</svg>
